<mxfile host="app.diagrams.net" modified="2021-09-16T14:11:04.887Z" agent="5.0 (Windows NT 10.0; Win64; x64) AppleWebKit/537.36 (KHTML, like Gecko) Chrome/93.0.4577.82 Safari/537.36" etag="sF5eQB58ey3Ic-n-Jo0k" version="15.2.7" type="github">
  <diagram id="4ygR9KXMn1PYeCUSnGep" name="第 1 页">
    <mxGraphModel dx="677" dy="378" grid="1" gridSize="10" guides="1" tooltips="1" connect="1" arrows="1" fold="1" page="1" pageScale="1" pageWidth="827" pageHeight="1169" math="0" shadow="0">
      <root>
        <mxCell id="0" />
        <mxCell id="1" parent="0" />
        <mxCell id="N-X16PQto15Nf5nmxNQL-6" style="edgeStyle=orthogonalEdgeStyle;orthogonalLoop=1;jettySize=auto;html=1;fontColor=#46495D;strokeColor=#788AA3;fillColor=#B2C9AB;" parent="1" source="N-X16PQto15Nf5nmxNQL-1" target="N-X16PQto15Nf5nmxNQL-8" edge="1">
          <mxGeometry relative="1" as="geometry">
            <mxPoint x="240" y="350" as="targetPoint" />
          </mxGeometry>
        </mxCell>
        <mxCell id="N-X16PQto15Nf5nmxNQL-20" style="edgeStyle=orthogonalEdgeStyle;orthogonalLoop=1;jettySize=auto;html=1;entryX=0;entryY=0.5;entryDx=0;entryDy=0;fontColor=#46495D;strokeColor=#788AA3;fillColor=#B2C9AB;" parent="1" source="N-X16PQto15Nf5nmxNQL-1" target="N-X16PQto15Nf5nmxNQL-15" edge="1">
          <mxGeometry relative="1" as="geometry" />
        </mxCell>
        <mxCell id="N-X16PQto15Nf5nmxNQL-1" value="浏览者" style="shape=umlActor;verticalLabelPosition=bottom;verticalAlign=top;html=1;outlineConnect=0;fontColor=#46495D;strokeColor=#788AA3;fillColor=#B2C9AB;" parent="1" vertex="1">
          <mxGeometry x="90" y="210" width="30" height="60" as="geometry" />
        </mxCell>
        <mxCell id="N-X16PQto15Nf5nmxNQL-10" style="edgeStyle=orthogonalEdgeStyle;orthogonalLoop=1;jettySize=auto;html=1;entryX=1;entryY=0.5;entryDx=0;entryDy=0;fontColor=#46495D;strokeColor=#788AA3;fillColor=#B2C9AB;" parent="1" source="N-X16PQto15Nf5nmxNQL-2" target="N-X16PQto15Nf5nmxNQL-9" edge="1">
          <mxGeometry relative="1" as="geometry" />
        </mxCell>
        <mxCell id="N-X16PQto15Nf5nmxNQL-21" style="edgeStyle=orthogonalEdgeStyle;orthogonalLoop=1;jettySize=auto;html=1;entryX=1;entryY=0.5;entryDx=0;entryDy=0;fontColor=#46495D;strokeColor=#788AA3;fillColor=#B2C9AB;" parent="1" source="N-X16PQto15Nf5nmxNQL-2" target="N-X16PQto15Nf5nmxNQL-17" edge="1">
          <mxGeometry relative="1" as="geometry" />
        </mxCell>
        <mxCell id="N-X16PQto15Nf5nmxNQL-2" value="管理员" style="shape=umlActor;verticalLabelPosition=bottom;verticalAlign=top;html=1;outlineConnect=0;fontColor=#46495D;strokeColor=#788AA3;fillColor=#B2C9AB;" parent="1" vertex="1">
          <mxGeometry x="480" y="210" width="30" height="60" as="geometry" />
        </mxCell>
        <mxCell id="N-X16PQto15Nf5nmxNQL-12" value="" style="swimlane;startSize=0;fontColor=#46495D;strokeColor=#788AA3;fillColor=#B2C9AB;" parent="1" vertex="1">
          <mxGeometry x="150" y="140" width="310" height="280" as="geometry">
            <mxRectangle x="150" y="140" width="50" height="40" as="alternateBounds" />
          </mxGeometry>
        </mxCell>
        <mxCell id="N-X16PQto15Nf5nmxNQL-13" value="校园知识分享平台" style="text;html=1;align=center;verticalAlign=middle;resizable=0;points=[];autosize=1;strokeColor=none;fillColor=none;fontColor=#46495D;" parent="N-X16PQto15Nf5nmxNQL-12" vertex="1">
          <mxGeometry x="100" width="110" height="20" as="geometry" />
        </mxCell>
        <mxCell id="N-X16PQto15Nf5nmxNQL-15" value="提交评论" style="ellipse;whiteSpace=wrap;html=1;fontColor=#46495D;strokeColor=#788AA3;fillColor=#B2C9AB;" parent="N-X16PQto15Nf5nmxNQL-12" vertex="1">
          <mxGeometry x="70" y="50" width="70" height="40" as="geometry" />
        </mxCell>
        <mxCell id="N-X16PQto15Nf5nmxNQL-5" value="创作知识" style="ellipse;whiteSpace=wrap;html=1;fontColor=#46495D;strokeColor=#788AA3;fillColor=#B2C9AB;" parent="N-X16PQto15Nf5nmxNQL-12" vertex="1">
          <mxGeometry x="65" y="200" width="70" height="40" as="geometry" />
        </mxCell>
        <mxCell id="N-X16PQto15Nf5nmxNQL-9" value="审核知识" style="ellipse;whiteSpace=wrap;html=1;fontColor=#46495D;strokeColor=#788AA3;fillColor=#B2C9AB;" parent="N-X16PQto15Nf5nmxNQL-12" vertex="1">
          <mxGeometry x="180" y="110" width="75" height="40" as="geometry" />
        </mxCell>
        <mxCell id="N-X16PQto15Nf5nmxNQL-8" value="浏览知识" style="ellipse;whiteSpace=wrap;html=1;fontColor=#46495D;strokeColor=#788AA3;fillColor=#B2C9AB;" parent="N-X16PQto15Nf5nmxNQL-12" vertex="1">
          <mxGeometry x="65" y="110" width="75" height="40" as="geometry" />
        </mxCell>
        <mxCell id="N-X16PQto15Nf5nmxNQL-17" value="审核评论" style="ellipse;whiteSpace=wrap;html=1;fontColor=#46495D;strokeColor=#788AA3;fillColor=#B2C9AB;" parent="N-X16PQto15Nf5nmxNQL-12" vertex="1">
          <mxGeometry x="180" y="50" width="70" height="40" as="geometry" />
        </mxCell>
        <mxCell id="N-X16PQto15Nf5nmxNQL-25" style="edgeStyle=orthogonalEdgeStyle;rounded=1;orthogonalLoop=1;jettySize=auto;html=1;entryX=0;entryY=0.5;entryDx=0;entryDy=0;fontColor=#46495D;strokeColor=#788AA3;fillColor=#B2C9AB;" parent="1" source="N-X16PQto15Nf5nmxNQL-24" target="N-X16PQto15Nf5nmxNQL-5" edge="1">
          <mxGeometry relative="1" as="geometry" />
        </mxCell>
        <mxCell id="N-X16PQto15Nf5nmxNQL-24" value="创作者" style="shape=umlActor;verticalLabelPosition=bottom;verticalAlign=top;html=1;outlineConnect=0;fontColor=#46495D;strokeColor=#788AA3;fillColor=#B2C9AB;" parent="1" vertex="1">
          <mxGeometry x="90" y="330" width="30" height="60" as="geometry" />
        </mxCell>
      </root>
    </mxGraphModel>
  </diagram>
</mxfile>
